<svg width="128" height="128" viewBox="0 0 128 128" fill="none" xmlns="http://www.w3.org/2000/svg">
<mask id="mask0_26_312" style="mask-type:alpha" maskUnits="userSpaceOnUse" x="0" y="0" width="128" height="128">
<rect width="128" height="128" fill="#D9D9D9"/>
</mask>
<g mask="url(#mask0_26_312)">
<path d="M61.3333 106.667C56.8888 106.667 53.1111 105.111 50 102C46.8888 98.8889 45.3333 95.1111 45.3333 90.6667H56C56 92.1778 56.5111 93.4444 57.5333 94.4667C58.5555 95.4889 59.8222 96 61.3333 96C62.8444 96 64.1111 95.4889 65.1333 94.4667C66.1555 93.4444 66.6666 92.1778 66.6666 90.6667C66.6666 89.1555 66.1555 87.8889 65.1333 86.8667C64.1111 85.8444 62.8444 85.3333 61.3333 85.3333H10.6666V74.6667H61.3333C65.7777 74.6667 69.5555 76.2222 72.6666 79.3333C75.7777 82.4444 77.3333 86.2222 77.3333 90.6667C77.3333 95.1111 75.7777 98.8889 72.6666 102C69.5555 105.111 65.7777 106.667 61.3333 106.667ZM10.6666 53.3333V42.6667H82.6666C84.9777 42.6667 86.8888 41.9111 88.4 40.4C89.9111 38.8889 90.6666 36.9778 90.6666 34.6667C90.6666 32.3556 89.9111 30.4444 88.4 28.9333C86.8888 27.4222 84.9777 26.6667 82.6666 26.6667C80.3555 26.6667 78.4444 27.4222 76.9333 28.9333C75.4222 30.4444 74.6666 32.3556 74.6666 34.6667H64C64 29.4222 65.8 25 69.4 21.4C73 17.8 77.4222 16 82.6666 16C87.9111 16 92.3333 17.8 95.9333 21.4C99.5333 25 101.333 29.4222 101.333 34.6667C101.333 39.9111 99.5333 44.3333 95.9333 47.9333C92.3333 51.5333 87.9111 53.3333 82.6666 53.3333H10.6666ZM98.6666 96V85.3333C100.978 85.3333 102.889 84.5778 104.4 83.0667C105.911 81.5555 106.667 79.6444 106.667 77.3333C106.667 75.0222 105.911 73.1111 104.4 71.6C102.889 70.0889 100.978 69.3333 98.6666 69.3333H10.6666V58.6667H98.6666C103.911 58.6667 108.333 60.4667 111.933 64.0667C115.533 67.6667 117.333 72.0889 117.333 77.3333C117.333 82.5778 115.533 87 111.933 90.6C108.333 94.2 103.911 96 98.6666 96Z" fill="url(#paint0_linear_26_312)"/>
</g>
<defs>
<linearGradient id="paint0_linear_26_312" x1="139.432" y1="128.159" x2="45.2418" y2="15.2571" gradientUnits="userSpaceOnUse">
<stop stop-color="#001A5D"/>
<stop offset="1" stop-color="#88F8FF"/>
</linearGradient>
</defs>
</svg>
