<svg width="128" height="128" viewBox="0 0 128 128" fill="none" xmlns="http://www.w3.org/2000/svg">
<mask id="mask0_26_318" style="mask-type:alpha" maskUnits="userSpaceOnUse" x="0" y="0" width="128" height="128">
<rect width="128" height="128" fill="#D9D9D9"/>
</mask>
<g mask="url(#mask0_26_318)">
<path d="M106.4 112C95.2889 112 84.3111 109.578 73.4667 104.733C62.6222 99.8889 52.7556 93.0222 43.8667 84.1333C34.9778 75.2444 28.1111 65.3778 23.2667 54.5333C18.4222 43.6889 16 32.7111 16 21.6C16 20 16.5333 18.6667 17.6 17.6C18.6667 16.5333 20 16 21.6 16H43.2C44.4444 16 45.5556 16.4222 46.5333 17.2667C47.5111 18.1111 48.0889 19.1111 48.2667 20.2667L51.7333 38.9333C51.9111 40.3556 51.8667 41.5556 51.6 42.5333C51.3333 43.5111 50.8444 44.3556 50.1333 45.0667L37.2 58.1333C38.9778 61.4222 41.0889 64.6 43.5333 67.6667C45.9778 70.7333 48.6667 73.6889 51.6 76.5333C54.3556 79.2889 57.2444 81.8445 60.2667 84.2C63.2889 86.5556 66.4889 88.7111 69.8667 90.6667L82.4 78.1333C83.2 77.3333 84.2444 76.7333 85.5333 76.3333C86.8222 75.9333 88.0889 75.8222 89.3333 76L107.733 79.7333C108.978 80.0889 110 80.7333 110.8 81.6667C111.6 82.6 112 83.6444 112 84.8V106.4C112 108 111.467 109.333 110.4 110.4C109.333 111.467 108 112 106.4 112ZM32.1333 48L40.9333 39.2L38.6667 26.6667H26.8C27.2444 30.3111 27.8667 33.9111 28.6667 37.4667C29.4667 41.0222 30.6222 44.5333 32.1333 48ZM79.8667 95.7333C83.3333 97.2444 86.8667 98.4445 90.4667 99.3333C94.0667 100.222 97.6889 100.8 101.333 101.067V89.3333L88.8 86.8L79.8667 95.7333Z" fill="url(#paint0_linear_26_318)"/>
</g>
<defs>
<linearGradient id="paint0_linear_26_318" x1="131.888" y1="134.757" x2="30.5339" y2="31.49" gradientUnits="userSpaceOnUse">
<stop stop-color="#001A5D"/>
<stop offset="1" stop-color="#88F8FF"/>
</linearGradient>
</defs>
</svg>
