<svg width="256" height="144" viewBox="0 0 256 144" fill="none" xmlns="http://www.w3.org/2000/svg">
<g clip-path="url(#clip0_26_361)">
<path d="M58.23 69.29V46.64C58.23 34.98 63.79 22.71 75.94 13.595C85.57 6.37 99.39 1.155 117.87 0.025L219.815 0L220.32 0.02C224.03 -0.005 227.41 0.285 230.465 0.855C239.165 2.475 245.465 6.3 249.68 11.555C253.905 16.83 255.89 23.385 255.995 30.49C256.04 33.4 255.77 36.385 255.205 39.395C254.435 43.55 251.415 51.48 247.435 60.585C243.12 70.455 237.54 82.06 232.485 91.745C224.52 106.995 215.98 116.985 204.645 123.275C193.4 129.515 179.885 131.855 161.875 131.855H64.695C63.64 131.855 62.64 131.605 61.76 131.15H26.555V134.6C26.555 139.715 21.465 143.9 15.24 143.9H0V67.18H15.24C21.46 67.18 26.555 71.365 26.555 76.48V79.815C38.13 80.565 48.875 76.725 58.23 69.29ZM188.195 47.745C186.85 46.07 187.115 43.625 188.785 42.28C189.183 41.96 189.64 41.7215 190.13 41.5781C190.62 41.4348 191.133 41.3895 191.641 41.4448C192.148 41.5 192.64 41.6548 193.088 41.9002C193.535 42.1456 193.93 42.4769 194.25 42.875L202.215 52.805C203.555 54.475 203.295 56.92 201.62 58.265C199.95 59.61 197.5 59.345 196.16 57.675L188.195 47.745ZM195.79 27.625C194.455 25.955 194.73 23.515 196.4 22.175C198.07 20.84 200.51 21.115 201.845 22.785L222.515 48.63C222.833 49.0276 223.07 49.4839 223.212 49.973C223.354 50.462 223.398 50.9742 223.341 51.4803C223.285 51.9864 223.13 52.4765 222.884 52.9225C222.639 53.3686 222.308 53.7619 221.91 54.08C220.24 55.415 217.8 55.145 216.46 53.47L195.79 27.625ZM71.16 46.64V118.925H161.875C177.74 118.925 189.325 117.04 198.38 112.015C207.345 107.04 214.32 98.715 221.075 85.785C225.925 76.49 231.355 65.19 235.62 55.435C239.255 47.115 241.955 40.175 242.53 37.07C242.95 34.845 243.15 32.685 243.12 30.645C243.055 26.365 241.955 22.54 239.63 19.635C237.285 16.71 233.535 14.535 228.14 13.53C225.85 13.105 223.29 12.885 220.45 12.895L219.815 12.93H118.25C102.705 13.935 91.355 18.13 83.665 23.895C75.09 30.335 71.16 38.76 71.16 46.64Z" fill="url(#paint0_linear_26_361)"/>
</g>
<defs>
<linearGradient id="paint0_linear_26_361" x1="309.036" y1="178.012" x2="180.495" y2="-54.9781" gradientUnits="userSpaceOnUse">
<stop stop-color="#001A5D"/>
<stop offset="1" stop-color="#88F8FF"/>
</linearGradient>
<clipPath id="clip0_26_361">
<rect width="256" height="143.9" fill="white"/>
</clipPath>
</defs>
</svg>
