<svg width="256" height="144" viewBox="0 0 256 144" fill="none" xmlns="http://www.w3.org/2000/svg">
<g clip-path="url(#clip0_26_341)">
<path d="M197.77 69.29V46.64C197.77 34.98 192.21 22.71 180.06 13.595C170.43 6.37 156.61 1.155 138.13 0.025L36.185 0L35.68 0.02C31.97 -0.005 28.59 0.285 25.535 0.855C16.835 2.475 10.535 6.3 6.32001 11.555C2.095 16.83 0.110001 23.385 0.00500488 30.49C-0.0400085 33.4 0.229996 36.385 0.794998 39.395C1.565 43.55 4.58501 51.48 8.565 60.585C12.88 70.455 18.46 82.06 23.515 91.745C31.48 106.995 40.02 116.985 51.355 123.275C62.6 129.515 76.115 131.855 94.125 131.855H191.305C192.36 131.855 193.36 131.605 194.24 131.15H229.445V134.6C229.445 139.715 234.535 143.9 240.76 143.9H256V67.18H240.76C234.54 67.18 229.445 71.365 229.445 76.48V79.815C217.87 80.565 207.125 76.725 197.77 69.29ZM67.805 47.745C69.15 46.07 68.885 43.625 67.215 42.28C66.8172 41.96 66.3602 41.7215 65.8702 41.5781C65.3802 41.4348 64.8667 41.3895 64.3592 41.4448C63.8516 41.5 63.3599 41.6548 62.9122 41.9002C62.4645 42.1456 62.0696 42.4769 61.75 42.875L53.785 52.805C52.445 54.475 52.705 56.92 54.38 58.265C56.05 59.61 58.5 59.345 59.84 57.675L67.805 47.745ZM60.21 27.625C61.545 25.955 61.27 23.515 59.6 22.175C57.93 20.84 55.49 21.115 54.155 22.785L33.485 48.63C33.1668 49.0276 32.9301 49.4839 32.7883 49.973C32.6465 50.462 32.6024 50.9742 32.6586 51.4803C32.7148 51.9864 32.8701 52.4765 33.1157 52.9225C33.3613 53.3686 33.6924 53.7619 34.09 54.08C35.76 55.415 38.2 55.145 39.54 53.47L60.21 27.625ZM184.84 46.64V118.925H94.125C78.26 118.925 66.675 117.04 57.62 112.015C48.655 107.04 41.68 98.715 34.925 85.785C30.075 76.49 24.645 65.19 20.38 55.435C16.745 47.115 14.045 40.175 13.47 37.07C13.05 34.845 12.85 32.685 12.88 30.645C12.945 26.365 14.045 22.54 16.37 19.635C18.715 16.71 22.465 14.535 27.86 13.53C30.15 13.105 32.71 12.885 35.55 12.895L36.185 12.93H137.75C153.295 13.935 164.645 18.13 172.335 23.895C180.91 30.335 184.84 38.76 184.84 46.64Z" fill="url(#paint0_linear_26_341)"/>
</g>
<defs>
<linearGradient id="paint0_linear_26_341" x1="-53.0357" y1="178.012" x2="75.5049" y2="-54.9781" gradientUnits="userSpaceOnUse">
<stop stop-color="#001A5D"/>
<stop offset="1" stop-color="#88F8FF"/>
</linearGradient>
<clipPath id="clip0_26_341">
<rect width="256" height="143.9" fill="white" transform="matrix(-1 0 0 1 256 0)"/>
</clipPath>
</defs>
</svg>
