<svg width="128" height="67" viewBox="0 0 128 67" fill="none" xmlns="http://www.w3.org/2000/svg">
<path d="M74.5182 0.0805435C63.3394 0.684631 55.3117 5.51731 51.0102 14.2363C48.6344 19.0891 47.509 25.1501 47.509 33.2851C47.509 44.4204 49.5847 51.7298 54.3363 57.4485C59.3881 63.5095 66.9656 66.5299 77.1441 66.5299C90.4486 66.5299 104.928 61.6972 115.607 53.683C130.587 42.447 132.088 28.1302 119.558 16.2096C109.855 6.96712 93.5496 0.503403 78.6446 0.020134C77.6942 -0.020134 75.8186 0 74.5182 0.0805435ZM82.2208 7.61147C95.9004 9.26264 109.68 16.1895 115.682 24.4252C119.909 30.2244 119.909 36.3458 115.682 42.145C108.555 51.9312 90.5986 59.6433 76.0187 59.2003C70.2667 59.0191 67.1657 58.0526 63.8896 55.3543C60.1383 52.2936 58.0626 47.9241 56.9622 40.9368C56.7622 39.6481 56.6371 36.6478 56.6371 33.2851C56.6371 24.2842 57.7625 19.23 60.8385 14.4578C62.6892 11.6186 66.0403 9.22237 69.6165 8.17529C72.6175 7.30943 77.8193 7.0678 82.2208 7.61147Z" fill="url(#paint0_linear_26_330)"/>
<path d="M2.49383 4.12793C-0.732265 5.45692 -0.80729 9.02102 2.36878 10.4708L3.36912 10.934H21.5503C33.7794 10.934 39.9565 10.8736 40.4317 10.7125C42.1072 10.2091 43.2576 8.79953 43.2576 7.26918C43.2576 6.16169 42.6324 5.17502 41.432 4.40984L40.4567 3.78562L22.0504 3.72521L3.61921 3.68494L2.49383 4.12793Z" fill="url(#paint1_linear_26_330)"/>
<path d="M2.54386 17.3977C-0.107034 18.4649 -0.757254 21.1833 1.19341 23.0559C2.46884 24.2641 1.79361 24.2238 21.7754 24.2238C39.7565 24.2238 40.0816 24.2238 40.9819 23.801C43.5577 22.6532 44.0079 19.5321 41.8322 17.9414C40.5067 16.9547 40.7068 16.9748 21.5753 16.9748C3.71926 16.9748 3.61923 16.9748 2.54386 17.3977Z" fill="url(#paint2_linear_26_330)"/>
<path d="M3.61924 30.446C2.49386 30.6675 1.89366 30.9695 1.04337 31.7548C-0.782246 33.4261 -0.132026 36.0036 2.36882 37.1513L3.36916 37.6145L21.0001 37.6749C39.3563 37.7353 40.1316 37.695 41.5571 36.8896C43.3327 35.8626 43.7828 33.6275 42.5324 32.0569C41.1319 30.2648 42.3073 30.3654 22.1255 30.3252C12.3722 30.3252 4.04439 30.3654 3.61924 30.446Z" fill="url(#paint3_linear_26_330)"/>
<path d="M2.61893 44.0378C1.6436 44.3801 0.618257 45.3466 0.24313 46.293C-0.432099 47.9039 0.618257 49.8168 2.54391 50.582C3.64428 51.0049 3.81934 51.0049 21.6504 51.0049C38.6811 51.0049 39.6815 50.9847 40.6568 50.6223C44.0579 49.3739 44.083 45.4473 40.7318 44.0378C39.7315 43.635 3.79433 43.6149 2.61893 44.0378Z" fill="url(#paint4_linear_26_330)"/>
<path d="M2.49383 57.4888C-0.732265 58.8178 -0.80729 62.3819 2.36878 63.8317L3.36912 64.2948H21.5503C33.7794 64.2948 39.9565 64.2344 40.4317 64.0733C42.1072 63.5699 43.2576 62.1604 43.2576 60.63C43.2576 59.5225 42.6324 58.5359 41.432 57.7707L40.4567 57.1465L22.0504 57.0861L3.61921 57.0458L2.49383 57.4888Z" fill="url(#paint5_linear_26_330)"/>
<defs>
<linearGradient id="paint0_linear_26_330" x1="144.675" y1="-15.771" x2="75.9319" y2="68.9672" gradientUnits="userSpaceOnUse">
<stop stop-color="#001A5D"/>
<stop offset="1" stop-color="#88F8FF"/>
</linearGradient>
<linearGradient id="paint1_linear_26_330" x1="52.2132" y1="1.96655" x2="49.7599" y2="16.8721" gradientUnits="userSpaceOnUse">
<stop stop-color="#001A5D"/>
<stop offset="1" stop-color="#88F8FF"/>
</linearGradient>
<linearGradient id="paint2_linear_26_330" x1="52.1635" y1="15.2564" x2="49.7065" y2="30.1611" gradientUnits="userSpaceOnUse">
<stop stop-color="#001A5D"/>
<stop offset="1" stop-color="#88F8FF"/>
</linearGradient>
<linearGradient id="paint3_linear_26_330" x1="52.2003" y1="28.5784" x2="49.6684" y2="43.717" gradientUnits="userSpaceOnUse">
<stop stop-color="#001A5D"/>
<stop offset="1" stop-color="#88F8FF"/>
</linearGradient>
<linearGradient id="paint4_linear_26_330" x1="52.174" y1="42.0032" x2="49.7002" y2="56.962" gradientUnits="userSpaceOnUse">
<stop stop-color="#001A5D"/>
<stop offset="1" stop-color="#88F8FF"/>
</linearGradient>
<linearGradient id="paint5_linear_26_330" x1="52.2132" y1="55.3274" x2="49.7599" y2="70.233" gradientUnits="userSpaceOnUse">
<stop stop-color="#001A5D"/>
<stop offset="1" stop-color="#88F8FF"/>
</linearGradient>
</defs>
</svg>
