<svg width="128" height="128" viewBox="0 0 128 128" fill="none" xmlns="http://www.w3.org/2000/svg">
<mask id="mask0_26_300" style="mask-type:alpha" maskUnits="userSpaceOnUse" x="0" y="0" width="128" height="128">
<rect width="128" height="128" fill="#D9D9D9"/>
</mask>
<g mask="url(#mask0_26_300)">
<path d="M32 42.6667H80V32C80 27.5556 78.4445 23.7778 75.3333 20.6667C72.2222 17.5556 68.4445 16 64 16C59.5556 16 55.7778 17.5556 52.6667 20.6667C49.5556 23.7778 48 27.5556 48 32H37.3333C37.3333 24.6223 39.9333 18.3334 45.1333 13.1334C50.3333 7.93337 56.6222 5.33337 64 5.33337C71.3778 5.33337 77.6667 7.93337 82.8667 13.1334C88.0667 18.3334 90.6667 24.6223 90.6667 32V42.6667H96C98.9333 42.6667 101.444 43.7112 103.533 45.8C105.622 47.8889 106.667 50.4 106.667 53.3334V106.667C106.667 109.6 105.622 112.111 103.533 114.2C101.444 116.289 98.9333 117.333 96 117.333H32C29.0667 117.333 26.5556 116.289 24.4667 114.2C22.3778 112.111 21.3333 109.6 21.3333 106.667V53.3334C21.3333 50.4 22.3778 47.8889 24.4667 45.8C26.5556 43.7112 29.0667 42.6667 32 42.6667ZM32 106.667H96V53.3334H32V106.667ZM64 90.6667C66.9333 90.6667 69.4445 89.6223 71.5333 87.5334C73.6222 85.4445 74.6667 82.9334 74.6667 80C74.6667 77.0667 73.6222 74.5556 71.5333 72.4667C69.4445 70.3778 66.9333 69.3334 64 69.3334C61.0667 69.3334 58.5556 70.3778 56.4667 72.4667C54.3778 74.5556 53.3333 77.0667 53.3333 80C53.3333 82.9334 54.3778 85.4445 56.4667 87.5334C58.5556 89.6223 61.0667 90.6667 64 90.6667Z" fill="url(#paint0_linear_26_300)"/>
</g>
<defs>
<linearGradient id="paint0_linear_26_300" x1="124.345" y1="143.883" x2="9.77121" y2="54.9415" gradientUnits="userSpaceOnUse">
<stop stop-color="#001A5D"/>
<stop offset="1" stop-color="#88F8FF"/>
</linearGradient>
</defs>
</svg>
