<svg width="128" height="128" viewBox="0 0 128 128" fill="none" xmlns="http://www.w3.org/2000/svg">
<mask id="mask0_26_324" style="mask-type:alpha" maskUnits="userSpaceOnUse" x="0" y="0" width="128" height="128">
<rect width="128" height="128" fill="#D9D9D9"/>
</mask>
<g mask="url(#mask0_26_324)">
<path d="M10.6667 117.334V106.667C14.7556 106.667 18.8 106.4 22.8 105.867C26.8 105.334 30.7111 104.356 34.5334 102.934C30.4445 100.889 27.2222 97.9335 24.8667 94.0669C22.5111 90.2002 21.3334 86.0002 21.3334 81.4669V69.3335H42.6667V53.3336H60.6667L43.2 18.4002L52.8 13.6002L70.2667 48.5336C72.0445 52.0891 71.9111 55.5558 69.8667 58.9336C67.8222 62.3113 64.8 64.0002 60.8 64.0002H53.3334V69.3335C53.3334 72.2669 52.2889 74.778 50.2 76.8669C48.1111 78.9558 45.6 80.0002 42.6667 80.0002H32V81.4669C32 84.578 32.9556 87.3113 34.8667 89.6669C36.7778 92.0224 39.2 93.6002 42.1334 94.4002L43.7334 94.8002C47.2889 95.6891 49.2889 97.9113 49.7334 101.467C50.1778 105.022 48.8 107.689 45.6 109.467C40.2667 112.4 34.6445 114.445 28.7334 115.6C22.8222 116.756 16.8 117.334 10.6667 117.334ZM86.9333 102.134L79.3334 94.6669C81.2 92.8002 82.6667 90.6447 83.7333 88.2002C84.8 85.7558 85.3334 83.1113 85.3334 80.2669C85.3334 77.4224 84.8 74.778 83.7333 72.3335C82.6667 69.8891 81.2 67.7336 79.3334 65.8669L86.9333 58.2669C89.7778 61.1113 92 64.4224 93.6 68.2002C95.2 71.978 96 76.0002 96 80.2669C96 84.5335 95.2 88.5335 93.6 92.2669C92 96.0002 89.7778 99.2891 86.9333 102.134ZM102 117.334L94.4 109.734C98.2222 105.911 101.222 101.489 103.4 96.4669C105.578 91.4447 106.667 86.0447 106.667 80.2669C106.667 74.4002 105.578 68.978 103.4 64.0002C101.222 59.0224 98.2222 54.6224 94.4 50.8002L102 43.2002C106.8 48.0002 110.556 53.5558 113.267 59.8669C115.978 66.178 117.333 72.978 117.333 80.2669C117.333 87.4669 115.978 94.2447 113.267 100.6C110.556 106.956 106.8 112.534 102 117.334Z" fill="url(#paint0_linear_26_324)"/>
</g>
<defs>
<linearGradient id="paint0_linear_26_324" x1="139.432" y1="141.924" x2="30.012" y2="27.287" gradientUnits="userSpaceOnUse">
<stop stop-color="#001A5D"/>
<stop offset="1" stop-color="#88F8FF"/>
</linearGradient>
</defs>
</svg>
