<svg width="64" height="64" viewBox="0 0 64 64" fill="none" xmlns="http://www.w3.org/2000/svg">
<mask id="mask0_26_400" style="mask-type:alpha" maskUnits="userSpaceOnUse" x="0" y="0" width="64" height="64">
<rect width="64" height="64" fill="#D9D9D9"/>
</mask>
<g mask="url(#mask0_26_400)">
<path d="M29.3333 58.6667V47.6L20.6666 56.1333L16.9333 52.4L29.3333 40V34.6667H24L11.6 47.0667L7.86665 43.3333L16.4 34.6667H5.33331V29.3333H16.4L7.86665 20.6667L11.6 16.9333L24 29.3333H29.3333V24L16.9333 11.6L20.6666 7.86668L29.3333 16.4V5.33334H34.6666V16.4L43.3333 7.86668L47.0666 11.6L34.6666 24V29.3333H40L52.4 16.9333L56.1333 20.6667L47.6 29.3333H58.6666V34.6667H47.6L56.1333 43.3333L52.4 47.0667L40 34.6667H34.6666V40L47.0666 52.4L43.3333 56.1333L34.6666 47.6V58.6667H29.3333Z" fill="#EBEBEB"/>
</g>
</svg>
