<svg width="64" height="64" viewBox="0 0 64 64" fill="none" xmlns="http://www.w3.org/2000/svg">
<mask id="mask0_26_394" style="mask-type:alpha" maskUnits="userSpaceOnUse" x="0" y="0" width="128" height="128">
<rect width="128" height="128" fill="#D9D9D9"/>
</mask>
<g mask="url(#mask0_26_394)">
<path d="M30.6666 53.3333C28.4444 53.3333 26.5555 52.5556 25 51C23.4444 49.4444 22.6666 47.5556 22.6666 45.3333H28C28 46.0889 28.2555 46.7222 28.7666 47.2333C29.2778 47.7444 29.9111 48 30.6666 48C31.4222 48 32.0555 47.7444 32.5666 47.2333C33.0778 46.7222 33.3333 46.0889 33.3333 45.3333C33.3333 44.5778 33.0778 43.9444 32.5666 43.4333C32.0555 42.9222 31.4222 42.6667 30.6666 42.6667H5.33331V37.3333H30.6666C32.8889 37.3333 34.7778 38.1111 36.3333 39.6667C37.8889 41.2222 38.6666 43.1111 38.6666 45.3333C38.6666 47.5556 37.8889 49.4444 36.3333 51C34.7778 52.5556 32.8889 53.3333 30.6666 53.3333ZM5.33331 26.6667V21.3333H41.3333C42.4889 21.3333 43.4444 20.9556 44.2 20.2C44.9555 19.4444 45.3333 18.4889 45.3333 17.3333C45.3333 16.1778 44.9555 15.2222 44.2 14.4667C43.4444 13.7111 42.4889 13.3333 41.3333 13.3333C40.1778 13.3333 39.2222 13.7111 38.4666 14.4667C37.7111 15.2222 37.3333 16.1778 37.3333 17.3333H32C32 14.7111 32.9 12.5 34.7 10.7C36.5 8.9 38.7111 8 41.3333 8C43.9555 8 46.1666 8.9 47.9666 10.7C49.7666 12.5 50.6666 14.7111 50.6666 17.3333C50.6666 19.9556 49.7666 22.1667 47.9666 23.9667C46.1666 25.7667 43.9555 26.6667 41.3333 26.6667H5.33331ZM49.3333 48V42.6667C50.4889 42.6667 51.4444 42.2889 52.2 41.5333C52.9555 40.7778 53.3333 39.8222 53.3333 38.6667C53.3333 37.5111 52.9555 36.5556 52.2 35.8C51.4444 35.0444 50.4889 34.6667 49.3333 34.6667H5.33331V29.3333H49.3333C51.9555 29.3333 54.1666 30.2333 55.9666 32.0333C57.7666 33.8333 58.6666 36.0444 58.6666 38.6667C58.6666 41.2889 57.7666 43.5 55.9666 45.3C54.1666 47.1 51.9555 48 49.3333 48Z" fill="#EBEBEB"/>
</g>
</svg>
