<svg width="65" height="65" viewBox="0 0 65 65" fill="none" xmlns="http://www.w3.org/2000/svg">
<path d="M28.8613 0.715849C28.111 1.041 27.9484 1.50371 27.9484 3.30455V4.9053H23.2587C18.1814 4.9053 18.0563 4.9178 17.4435 5.59311L17.1309 5.93077L17.0934 9.92013C17.0558 14.2972 17.0809 14.5098 17.7937 14.9975C18.1063 15.1976 18.544 15.2226 23.0461 15.2601L27.9484 15.2976V16.8984C27.9484 18.3615 27.9734 18.5366 28.236 18.9243C28.5987 19.4621 29.249 19.6997 29.8868 19.5246C30.1994 19.437 31.8502 18.149 35.2393 15.3226C37.9405 13.0841 40.2166 11.1582 40.3041 11.0582C40.3917 10.9456 40.5042 10.6705 40.5793 10.4329C40.8294 9.49493 40.7043 9.35736 35.602 5.11789C33.0258 2.96689 30.6872 1.06601 30.412 0.865917C29.8618 0.490744 29.4616 0.453226 28.8613 0.715849ZM33.9887 7.89418C35.3518 9.01971 36.4524 9.98265 36.4273 10.0452C36.3898 10.1577 31.2499 14.4097 31.1499 14.4097C31.0999 14.4097 31.0749 14.1221 31.0749 13.7844C31.0749 13.4343 30.9873 12.984 30.8873 12.784C30.4996 12.0461 30.4371 12.0336 25.1346 12.0336H20.3199V10.0327V8.03175H25.1346C30.4371 8.03175 30.4996 8.01924 30.8873 7.2814C30.9873 7.08131 31.0749 6.59358 31.0749 6.2059C31.0749 5.54309 31.0874 5.50557 31.3 5.68066C31.4125 5.7807 32.6256 6.78117 33.9887 7.89418Z" fill="#EBEBEB"/>
<path d="M54.4857 5.40556C53.1351 5.76823 52.1471 6.34349 51.0716 7.40649C49.596 8.86967 48.9081 10.3454 48.7581 12.3088C48.4954 15.8604 50.8716 19.187 54.3982 20.2375C55.4112 20.5376 57.3871 20.5376 58.4001 20.2375C59.7257 19.8498 60.8262 19.1745 61.8392 18.1615C63.2148 16.7858 63.9276 15.2101 64.0527 13.2842C64.1777 11.1457 63.4649 9.18231 61.9642 7.60658C60.4385 6.00584 58.8628 5.2805 56.7118 5.20546C55.6738 5.16795 55.2111 5.20546 54.4857 5.40556ZM58.4376 8.83215C59.2504 9.24484 60.0633 10.0827 60.451 10.9081C60.7386 11.5084 60.7762 11.7585 60.7762 12.8465C60.7762 13.9845 60.7386 14.1596 60.4135 14.8224C59.9633 15.7103 59.1754 16.4482 58.2375 16.8859C57.6247 17.1735 57.3621 17.2235 56.3991 17.2235C55.4487 17.2235 55.161 17.1735 54.5733 16.8984C53.6228 16.4482 52.96 15.8229 52.4473 14.885C52.0471 14.1346 52.0221 14.0346 52.0221 12.8465C52.0221 11.3583 52.2472 10.758 53.1601 9.78259C54.4857 8.36944 56.7118 7.95674 58.4376 8.83215Z" fill="#EBEBEB"/>
<path d="M51.9972 21.9758C50.534 22.301 49.0333 23.2389 48.1954 24.3519C47.8827 24.7646 46.2695 28.0912 43.8183 33.3686C41.6799 37.9708 39.829 41.9476 39.7164 42.1977L39.5163 42.673L31.8878 39.1463L24.2718 35.6197L23.1963 35.5697C21.508 35.4946 20.1574 35.9323 18.9818 36.9578C18.4941 37.3705 5.05033 55.2538 4.36251 56.3918C3.84977 57.2422 3.63718 58.3052 3.72472 59.5558C3.94982 62.8949 7.21384 65.2209 10.4779 64.3705C11.4158 64.1329 12.0786 63.7828 12.7164 63.2075C13.004 62.9574 15.7303 59.4057 18.7817 55.3288C21.8456 51.2645 24.3968 47.9254 24.4594 47.9254C24.5344 47.9254 28.3111 49.6637 32.8633 51.7897C37.4154 53.9157 41.3672 55.729 41.6423 55.8166C42.4802 56.1042 44.4937 56.0417 45.4691 55.704C46.8823 55.2163 48.0078 54.3784 48.7456 53.2654C49.4335 52.2149 59.4381 30.6549 59.6507 29.767C60.1509 27.6285 59.4881 25.4149 57.8499 23.7767C56.2616 22.1884 54.0481 21.5006 51.9972 21.9758ZM54.3607 25.3649C55.0861 25.6025 55.8865 26.2903 56.2491 26.9657C56.4492 27.3533 56.5117 27.691 56.5117 28.3538V29.2292L51.4094 40.1093C48.6206 46.087 46.1819 51.2019 46.0194 51.452C45.6442 52.0148 44.6062 52.6401 43.8434 52.7526C43.5432 52.8027 43.0305 52.7777 42.7178 52.7026C42.4052 52.6276 38.1282 50.7017 33.2384 48.4381C23.2963 43.8235 23.5839 43.9235 22.7711 44.6989C22.546 44.924 19.8072 48.5382 16.6932 52.7401C13.5793 56.9296 10.9156 60.5063 10.7655 60.6563C10.3528 61.119 9.85256 61.3191 9.10221 61.3191C8.25182 61.3191 7.40142 60.8439 7.05126 60.1811C6.76363 59.6433 6.73862 58.5678 7.00124 58.0551C7.38892 57.3048 20.9077 39.3464 21.2579 39.1213C21.483 38.9712 21.9332 38.8587 22.4584 38.8212L23.2963 38.7586L28.3487 41.1097C31.1249 42.4103 34.8267 44.1361 36.5775 44.949C38.3283 45.7619 39.8915 46.4622 40.0416 46.4997C40.4168 46.5998 41.1171 46.3497 41.4297 46.012C41.5673 45.8619 43.6933 41.4349 46.1319 36.1699C50.9592 25.8026 50.9091 25.8902 52.1472 25.4149C52.9101 25.1273 53.6104 25.1023 54.3607 25.3649Z" fill="#EBEBEB"/>
</svg>
