<svg width="65" height="65" viewBox="0 0 65 65" fill="none" xmlns="http://www.w3.org/2000/svg">
<mask id="mask0_26_406" style="mask-type:alpha" maskUnits="userSpaceOnUse" x="0" y="0" width="65" height="65">
<rect x="0.828247" y="0.144531" width="64" height="64" fill="#D9D9D9"/>
</mask>
<g mask="url(#mask0_26_406)">
<path d="M29.0949 58.8112C26.8282 58.8112 25.106 58.1334 23.9282 56.7779C22.7504 55.4223 22.1616 53.8779 22.1616 52.1445C22.1616 50.989 22.4171 49.8668 22.9282 48.7779C23.4393 47.689 24.2282 46.789 25.2949 46.0779C26.2727 45.4557 27.0616 44.6557 27.6616 43.6779C28.2616 42.7001 28.6727 41.6557 28.8949 40.5445L28.0949 40.1445C27.8282 40.0112 27.5838 39.8557 27.3616 39.6779L21.2282 41.8779C20.4727 42.1445 19.7393 42.3668 19.0282 42.5445C18.3171 42.7223 17.5838 42.8112 16.8282 42.8112C14.0282 42.8112 11.5504 41.589 9.39489 39.1445C7.23934 36.7001 6.16156 33.1223 6.16156 28.4112C6.16156 26.1445 6.83934 24.4223 8.19489 23.2445C9.55045 22.0668 11.0727 21.4779 12.7616 21.4779C13.9171 21.4779 15.0504 21.7334 16.1616 22.2445C17.2727 22.7557 18.1838 23.5445 18.8949 24.6112C19.5171 25.589 20.3171 26.3779 21.2949 26.9779C22.2727 27.5779 23.3171 27.989 24.4282 28.2112L24.8282 27.4112C24.9616 27.1445 25.1171 26.9001 25.2949 26.6779L23.0949 20.5445C22.8282 19.789 22.606 19.0557 22.4282 18.3445C22.2504 17.6334 22.1616 16.9223 22.1616 16.2112C22.1616 13.3668 23.3838 10.8668 25.8282 8.71121C28.2727 6.55565 31.8504 5.47787 36.5616 5.47787C38.8282 5.47787 40.5504 6.15565 41.7282 7.51121C42.906 8.86676 43.4949 10.389 43.4949 12.0779C43.4949 13.2334 43.2393 14.3668 42.7282 15.4779C42.2171 16.589 41.4282 17.5001 40.3616 18.2112C39.3838 18.8334 38.5949 19.6334 37.9949 20.6112C37.3949 21.589 36.9838 22.6334 36.7616 23.7445L37.5616 24.1445C37.8282 24.2779 38.0727 24.4334 38.2949 24.6112L44.4282 22.3445C45.1838 22.0779 45.906 21.8668 46.5949 21.7112C47.2838 21.5557 48.006 21.4779 48.7616 21.4779C52.3616 21.4779 55.0504 22.9668 56.8282 25.9445C58.606 28.9223 59.4949 32.2334 59.4949 35.8779C59.4949 38.1445 58.7838 39.8668 57.3616 41.0445C55.9393 42.2223 54.3616 42.8112 52.6282 42.8112C51.5171 42.8112 50.4393 42.5557 49.3949 42.0445C48.3504 41.5334 47.4727 40.7445 46.7616 39.6779C46.1393 38.7001 45.3393 37.9112 44.3616 37.3112C43.3838 36.7112 42.3393 36.3001 41.2282 36.0779L40.8282 36.8779C40.6949 37.1445 40.5393 37.389 40.3616 37.6112L42.5616 43.7445C42.8282 44.4557 43.0504 45.1334 43.2282 45.7779C43.406 46.4223 43.4949 47.1001 43.4949 47.8112C43.5393 50.7001 42.3393 53.2556 39.8949 55.4779C37.4504 57.7001 33.8504 58.8112 29.0949 58.8112ZM32.8282 36.1445C33.9393 36.1445 34.8838 35.7557 35.6616 34.9779C36.4393 34.2001 36.8282 33.2557 36.8282 32.1445C36.8282 31.0334 36.4393 30.089 35.6616 29.3112C34.8838 28.5334 33.9393 28.1445 32.8282 28.1445C31.7171 28.1445 30.7727 28.5334 29.9949 29.3112C29.2171 30.089 28.8282 31.0334 28.8282 32.1445C28.8282 33.2557 29.2171 34.2001 29.9949 34.9779C30.7727 35.7557 31.7171 36.1445 32.8282 36.1445ZM29.7616 23.3445C30.0282 23.2557 30.306 23.1779 30.5949 23.1112C30.8838 23.0445 31.1616 22.989 31.4282 22.9445C31.7838 21.0779 32.4616 19.3445 33.4616 17.7445C34.4616 16.1445 35.7838 14.8112 37.4282 13.7445C37.6504 13.5668 37.8282 13.3445 37.9616 13.0779C38.0949 12.8112 38.1616 12.4779 38.1616 12.0779C38.1616 11.7223 38.0282 11.4223 37.7616 11.1779C37.4949 10.9334 37.0949 10.8112 36.5616 10.8112C34.8727 10.8112 32.9616 11.1779 30.8282 11.9112C28.6949 12.6445 27.5838 14.0779 27.4949 16.2112C27.4949 16.6112 27.5504 16.989 27.6616 17.3445C27.7727 17.7001 27.8727 18.0334 27.9616 18.3445L29.7616 23.3445ZM16.8282 37.4779C17.4504 37.4779 18.1838 37.3223 19.0282 37.0112L24.0282 35.2112C23.9393 34.9445 23.8616 34.6668 23.7949 34.3779C23.7282 34.089 23.6727 33.8112 23.6282 33.5445C21.7616 33.189 20.0282 32.5112 18.4282 31.5112C16.8282 30.5112 15.4949 29.189 14.4282 27.5445C14.2504 27.3223 14.0171 27.1445 13.7282 27.0112C13.4393 26.8779 13.1171 26.8112 12.7616 26.8112C12.3616 26.8112 12.0504 26.9445 11.8282 27.2112C11.606 27.4779 11.4949 27.8779 11.4949 28.4112C11.4949 30.8112 11.9504 32.9223 12.8616 34.7445C13.7727 36.5668 15.0949 37.4779 16.8282 37.4779ZM29.0949 53.4779C31.1838 53.4779 33.2393 53.0556 35.2616 52.2112C37.2838 51.3668 38.2504 49.9001 38.1616 47.8112C38.1616 47.4557 38.106 47.1223 37.9949 46.8112C37.8838 46.5001 37.7838 46.2112 37.6949 45.9445L35.8949 40.9445C35.6282 41.0334 35.3504 41.1112 35.0616 41.1779C34.7727 41.2445 34.4949 41.3001 34.2282 41.3445C33.8727 43.2112 33.1949 44.9445 32.1949 46.5445C31.1949 48.1445 29.8727 49.4779 28.2282 50.5445C28.006 50.7223 27.8171 50.9557 27.6616 51.2445C27.506 51.5334 27.4504 51.8334 27.4949 52.1445C27.5393 52.5001 27.6727 52.8112 27.8949 53.0779C28.1171 53.3445 28.5171 53.4779 29.0949 53.4779ZM52.6282 37.4779C53.0282 37.4779 53.3838 37.3668 53.6949 37.1445C54.006 36.9223 54.1616 36.5001 54.1616 35.8779C54.1616 34.189 53.806 32.2668 53.0949 30.1112C52.3838 27.9557 50.9393 26.8557 48.7616 26.8112C48.3616 26.8112 47.9838 26.8557 47.6282 26.9445C47.2727 27.0334 46.9393 27.1223 46.6282 27.2112L41.6282 29.0779C41.7171 29.3445 41.7949 29.6223 41.8616 29.9112C41.9282 30.2001 41.9838 30.4779 42.0282 30.7445C43.8949 31.1001 45.6282 31.7779 47.2282 32.7779C48.8282 33.7779 50.1616 35.1001 51.2282 36.7445C51.3616 36.9668 51.5616 37.1445 51.8282 37.2779C52.0949 37.4112 52.3616 37.4779 52.6282 37.4779Z" fill="#EBEBEB"/>
</g>
</svg>
